<?xml version="1.0" encoding="UTF-8"?>
<svg xmlns="http://www.w3.org/2000/svg" xmlns:xlink="http://www.w3.org/1999/xlink" width="3200" height="1800" viewBox="0 -1800 3200 1800">
<defs>
</defs>
<rect x="0" y="-1800" width="16" height="1800" fill="#6eb4fa"/>
<rect x="16" y="-1800" width="1" height="1800" fill="#6db3fa"/>
<rect x="17" y="-1800" width="1" height="1800" fill="#76b8fa"/>
<rect x="18" y="-1800" width="1" height="1800" fill="#a5d0fa"/>
<rect x="19" y="-1800" width="1" height="1800" fill="#c5dffa"/>
<rect x="20" y="-1800" width="15" height="1800" fill="#bedcfa"/>
<rect x="35" y="-1800" width="1" height="1800" fill="#c0ddfa"/>
<rect x="36" y="-1800" width="1" height="1800" fill="#b8d9fa"/>
<rect x="37" y="-1800" width="1" height="1800" fill="#a5cffa"/>
<rect x="38" y="-1800" width="73" height="1800" fill="#96c8fa"/>
<rect x="111" y="-1800" width="1" height="1800" fill="#95c8fa"/>
<rect x="112" y="-1800" width="1" height="1800" fill="#8ec4fa"/>
<rect x="113" y="-1800" width="1" height="1800" fill="#74b7fa"/>
<rect x="114" y="-1800" width="1" height="1800" fill="#6cb3fa"/>
<rect x="115" y="-1800" width="15" height="1800" fill="#6eb4fa"/>
<rect x="130" y="-1800" width="1" height="1800" fill="#71b6fa"/>
<rect x="131" y="-1800" width="1" height="1800" fill="#60adfa"/>
<rect x="132" y="-1800" width="1" height="1800" fill="#419efa"/>
<rect x="133" y="-1800" width="1" height="1800" fill="#2f95fa"/>
<rect x="134" y="-1800" width="33" height="1800" fill="#3296fa"/>
<rect x="167" y="-1800" width="1" height="1800" fill="#3195fa"/>
<rect x="168" y="-1800" width="1" height="1800" fill="#3396fa"/>
<rect x="169" y="-1800" width="1" height="1800" fill="#59aafa"/>
<rect x="170" y="-1800" width="1" height="1800" fill="#89c1fa"/>
<rect x="171" y="-1800" width="1" height="1800" fill="#9bcafa"/>
<rect x="172" y="-1800" width="15" height="1800" fill="#96c8fa"/>
<rect x="187" y="-1800" width="1" height="1800" fill="#9acafa"/>
<rect x="188" y="-1800" width="1" height="1800" fill="#83befa"/>
<rect x="189" y="-1800" width="1" height="1800" fill="#6ab2fa"/>
<rect x="190" y="-1800" width="34" height="1800" fill="#6eb4fa"/>
<rect x="224" y="-1800" width="1" height="1800" fill="#6fb5fa"/>
<rect x="225" y="-1800" width="1" height="1800" fill="#73b7fb"/>
<rect x="226" y="-1800" width="1" height="1800" fill="#187de3"/>
<rect x="227" y="-1800" width="1" height="1800" fill="#0069da"/>
<rect x="228" y="-1800" width="15" height="1800" fill="#006edc"/>
<rect x="243" y="-1800" width="1" height="1800" fill="#0069da"/>
<rect x="244" y="-1800" width="1" height="1800" fill="#2484e3"/>
<rect x="245" y="-1800" width="1" height="1800" fill="#70b1f2"/>
<rect x="246" y="-1800" width="1" height="1800" fill="#9ecdfc"/>
<rect x="247" y="-1800" width="15" height="1800" fill="#96c8fa"/>
<rect x="262" y="-1800" width="1" height="1800" fill="#9bcbfa"/>
<rect x="263" y="-1800" width="1" height="1800" fill="#88c1fa"/>
<rect x="264" y="-1800" width="1" height="1800" fill="#48a2fa"/>
<rect x="265" y="-1800" width="1" height="1800" fill="#3497fa"/>
<rect x="266" y="-1800" width="1" height="1800" fill="#3195fa"/>
<rect x="267" y="-1800" width="17" height="1800" fill="#3296fa"/>
<rect x="284" y="-1800" width="1" height="1800" fill="#2991fa"/>
<rect x="285" y="-1800" width="1" height="1800" fill="#51a5fa"/>
<rect x="286" y="-1800" width="1" height="1800" fill="#9eccfa"/>
<rect x="287" y="-1800" width="32" height="1800" fill="#96c8fa"/>
<rect x="319" y="-1800" width="1" height="1800" fill="#98c9fa"/>
<rect x="320" y="-1800" width="1" height="1800" fill="#92c6fa"/>
<rect x="321" y="-1800" width="1" height="1800" fill="#6fb5fa"/>
<rect x="322" y="-1800" width="1" height="1800" fill="#6db3fa"/>
<rect x="323" y="-1800" width="15" height="1800" fill="#6eb4fa"/>
<rect x="338" y="-1800" width="1" height="1800" fill="#6db4fa"/>
<rect x="339" y="-1800" width="1" height="1800" fill="#7cbbfa"/>
<rect x="340" y="-1800" width="1" height="1800" fill="#90c5fa"/>
<rect x="341" y="-1800" width="1" height="1800" fill="#98c9fa"/>
<rect x="342" y="-1800" width="53" height="1800" fill="#96c8fa"/>
<rect x="395" y="-1800" width="1" height="1800" fill="#99c9fa"/>
<rect x="396" y="-1800" width="1" height="1800" fill="#79bafa"/>
<rect x="397" y="-1800" width="1" height="1800" fill="#6ab2fa"/>
<rect x="398" y="-1800" width="15" height="1800" fill="#6eb4fa"/>
<rect x="413" y="-1800" width="1" height="1800" fill="#6cb3fa"/>
<rect x="414" y="-1800" width="1" height="1800" fill="#76b8fa"/>
<rect x="415" y="-1800" width="1" height="1800" fill="#8ac2fa"/>
<rect x="416" y="-1800" width="1" height="1800" fill="#98c9fa"/>
<rect x="417" y="-1800" width="35" height="1800" fill="#96c8fa"/>
<rect x="452" y="-1800" width="1" height="1800" fill="#9acafa"/>
<rect x="453" y="-1800" width="1" height="1800" fill="#7dbcfa"/>
<rect x="454" y="-1800" width="1" height="1800" fill="#6ab2fa"/>
<rect x="455" y="-1800" width="53" height="1800" fill="#6eb4fa"/>
<rect x="508" y="-1800" width="1" height="1800" fill="#6cb3fa"/>
<rect x="509" y="-1800" width="1" height="1800" fill="#7abafa"/>
<rect x="510" y="-1800" width="1" height="1800" fill="#bfdcfa"/>
<rect x="511" y="-1800" width="1" height="1800" fill="#f0f5fa"/>
<rect x="512" y="-1800" width="15" height="1800" fill="#e6f0fa"/>
<rect x="527" y="-1800" width="1" height="1800" fill="#e4f2fd"/>
<rect x="528" y="-1800" width="1" height="1800" fill="#ece9f1"/>
<rect x="529" y="-1800" width="1" height="1800" fill="#fbd7d8"/>
<rect x="530" y="-1800" width="15" height="1800" fill="#ffd2d2"/>
<rect x="545" y="-1800" width="1" height="1800" fill="#ffd2d1"/>
<rect x="546" y="-1800" width="1" height="1800" fill="#fdd2d3"/>
<rect x="547" y="-1800" width="1" height="1800" fill="#e6d0dc"/>
<rect x="548" y="-1800" width="1" height="1800" fill="#a3c9f5"/>
<rect x="549" y="-1800" width="1" height="1800" fill="#91c7fc"/>
<rect x="550" y="-1800" width="34" height="1800" fill="#96c8fa"/>
<rect x="584" y="-1800" width="1" height="1800" fill="#93c6fa"/>
<rect x="585" y="-1800" width="1" height="1800" fill="#a0cdfa"/>
<rect x="586" y="-1800" width="1" height="1800" fill="#c0ddfa"/>
<rect x="587" y="-1800" width="15" height="1800" fill="#bedcfa"/>
<rect x="602" y="-1800" width="1" height="1800" fill="#bfdcfa"/>
<rect x="603" y="-1800" width="1" height="1800" fill="#bddbfa"/>
<rect x="604" y="-1800" width="1" height="1800" fill="#add3fa"/>
<rect x="605" y="-1800" width="1" height="1800" fill="#9acafa"/>
<rect x="606" y="-1800" width="1" height="1800" fill="#94c7fa"/>
<rect x="607" y="-1800" width="33" height="1800" fill="#96c8fa"/>
<rect x="640" y="-1800" width="1" height="1800" fill="#97c8fa"/>
<rect x="641" y="-1800" width="1" height="1800" fill="#94c7fa"/>
<rect x="642" y="-1800" width="1" height="1800" fill="#86c0fa"/>
<rect x="643" y="-1800" width="1" height="1800" fill="#6eb4fa"/>
<rect x="644" y="-1800" width="1" height="1800" fill="#6db4fa"/>
<rect x="645" y="-1800" width="52" height="1800" fill="#6eb4fa"/>
<rect x="697" y="-1800" width="1" height="1800" fill="#71b5fa"/>
<rect x="698" y="-1800" width="1" height="1800" fill="#68b1fa"/>
<rect x="699" y="-1800" width="1" height="1800" fill="#4ca3fa"/>
<rect x="700" y="-1800" width="1" height="1800" fill="#3497fa"/>
<rect x="701" y="-1800" width="1" height="1800" fill="#3195fa"/>
<rect x="702" y="-1800" width="14" height="1800" fill="#3296fa"/>
<rect x="716" y="-1800" width="1" height="1800" fill="#3196fa"/>
<rect x="717" y="-1800" width="1" height="1800" fill="#2d93fa"/>
<rect x="718" y="-1800" width="1" height="1800" fill="#7fbcfa"/>
<rect x="719" y="-1800" width="1" height="1800" fill="#9eccfa"/>
<rect x="720" y="-1800" width="15" height="1800" fill="#96c8fa"/>
<rect x="735" y="-1800" width="1" height="1800" fill="#94c7fa"/>
<rect x="736" y="-1800" width="1" height="1800" fill="#9fcdfa"/>
<rect x="737" y="-1800" width="1" height="1800" fill="#b3d7fa"/>
<rect x="738" y="-1800" width="1" height="1800" fill="#c0ddfa"/>
<rect x="739" y="-1800" width="15" height="1800" fill="#bedcfa"/>
<rect x="754" y="-1800" width="1" height="1800" fill="#c7e0fa"/>
<rect x="755" y="-1800" width="1" height="1800" fill="#a6d0fa"/>
<rect x="756" y="-1800" width="2" height="1800" fill="#3095fa"/>
<rect x="758" y="-1800" width="16" height="1800" fill="#3296fa"/>
<rect x="774" y="-1800" width="1" height="1800" fill="#3b9bfa"/>
<rect x="775" y="-1800" width="1" height="1800" fill="#60adfa"/>
<rect x="776" y="-1800" width="1" height="1800" fill="#72b6fa"/>
<rect x="777" y="-1800" width="15" height="1800" fill="#6eb4fa"/>
<rect x="792" y="-1800" width="1" height="1800" fill="#71b6fa"/>
<rect x="793" y="-1800" width="1" height="1800" fill="#62aefa"/>
<rect x="794" y="-1800" width="1" height="1800" fill="#449ffa"/>
<rect x="795" y="-1800" width="1" height="1800" fill="#3095fa"/>
<rect x="796" y="-1800" width="34" height="1800" fill="#3296fa"/>
<rect x="830" y="-1800" width="1" height="1800" fill="#3195fa"/>
<rect x="831" y="-1800" width="1" height="1800" fill="#46a0fa"/>
<rect x="832" y="-1800" width="1" height="1800" fill="#64affa"/>
<rect x="833" y="-1800" width="1" height="1800" fill="#71b6fa"/>
<rect x="834" y="-1800" width="33" height="1800" fill="#6eb4fa"/>
<rect x="867" y="-1800" width="1" height="1800" fill="#6bb3fa"/>
<rect x="868" y="-1800" width="1" height="1800" fill="#74b7fa"/>
<rect x="869" y="-1800" width="1" height="1800" fill="#98c9fa"/>
<rect x="870" y="-1800" width="1" height="1800" fill="#badafa"/>
<rect x="871" y="-1800" width="1" height="1800" fill="#c0ddfa"/>
<rect x="872" y="-1800" width="34" height="1800" fill="#bedcfa"/>
<rect x="906" y="-1800" width="1" height="1800" fill="#cbe2fa"/>
<rect x="907" y="-1800" width="1" height="1800" fill="#95c8fa"/>
<rect x="908" y="-1800" width="1" height="1800" fill="#2891fa"/>
<rect x="909" y="-1800" width="15" height="1800" fill="#3296fa"/>
<rect x="924" y="-1800" width="1" height="1800" fill="#3095fa"/>
<rect x="925" y="-1800" width="1" height="1800" fill="#3798fa"/>
<rect x="926" y="-1800" width="1" height="1800" fill="#60adfa"/>
<rect x="927" y="-1800" width="1" height="1800" fill="#8dc4fa"/>
<rect x="928" y="-1800" width="1" height="1800" fill="#9acafa"/>
<rect x="929" y="-1800" width="15" height="1800" fill="#96c8fa"/>
<rect x="944" y="-1800" width="1" height="1800" fill="#9bcafa"/>
<rect x="945" y="-1800" width="1" height="1800" fill="#b3d6fa"/>
<rect x="946" y="-1800" width="1" height="1800" fill="#c1defa"/>
<rect x="947" y="-1800" width="15" height="1800" fill="#bedcfa"/>
<rect x="962" y="-1800" width="1" height="1800" fill="#bfddfa"/>
<rect x="963" y="-1800" width="1" height="1800" fill="#bcdbfa"/>
<rect x="964" y="-1800" width="1" height="1800" fill="#add3fa"/>
<rect x="965" y="-1800" width="1" height="1800" fill="#95c8fa"/>
<rect x="966" y="-1800" width="15" height="1800" fill="#96c8fa"/>
<rect x="981" y="-1800" width="1" height="1800" fill="#97c8fa"/>
<rect x="982" y="-1800" width="1" height="1800" fill="#95c7fa"/>
<rect x="983" y="-1800" width="1" height="1800" fill="#7cbbfa"/>
<rect x="984" y="-1800" width="1" height="1800" fill="#6fb5fa"/>
<rect x="985" y="-1800" width="1" height="1800" fill="#6db4fa"/>
<rect x="986" y="-1800" width="14" height="1800" fill="#6eb4fa"/>
<rect x="1000" y="-1800" width="1" height="1800" fill="#70b5fa"/>
<rect x="1001" y="-1800" width="1" height="1800" fill="#5cabfa"/>
<rect x="1002" y="-1800" width="1" height="1800" fill="#3e9cfa"/>
<rect x="1003" y="-1800" width="1" height="1800" fill="#2f94fa"/>
<rect x="1004" y="-1800" width="15" height="1800" fill="#3296fa"/>
<rect x="1019" y="-1800" width="1" height="1800" fill="#3498fb"/>
<rect x="1020" y="-1800" width="1" height="1800" fill="#2c91f6"/>
<rect x="1021" y="-1800" width="1" height="1800" fill="#147ee8"/>
<rect x="1022" y="-1800" width="1" height="1800" fill="#016edc"/>
<rect x="1023" y="-1800" width="1" height="1800" fill="#006ddc"/>
<rect x="1024" y="-1800" width="13" height="1800" fill="#006edc"/>
<rect x="1037" y="-1800" width="1" height="1800" fill="#006ddc"/>
<rect x="1038" y="-1800" width="1" height="1800" fill="#026fdd"/>
<rect x="1039" y="-1800" width="1" height="1800" fill="#197ee3"/>
<rect x="1040" y="-1800" width="1" height="1800" fill="#5faaf6"/>
<rect x="1041" y="-1800" width="1" height="1800" fill="#74b8fc"/>
<rect x="1042" y="-1800" width="15" height="1800" fill="#6eb4fa"/>
<rect x="1057" y="-1800" width="1" height="1800" fill="#6cb3fa"/>
<rect x="1058" y="-1800" width="1" height="1800" fill="#78b9fa"/>
<rect x="1059" y="-1800" width="1" height="1800" fill="#8cc3fa"/>
<rect x="1060" y="-1800" width="1" height="1800" fill="#98c9fa"/>
<rect x="1061" y="-1800" width="15" height="1800" fill="#96c8fa"/>
<rect x="1076" y="-1800" width="1" height="1800" fill="#9ccbfa"/>
<rect x="1077" y="-1800" width="1" height="1800" fill="#86c0fa"/>
<rect x="1078" y="-1800" width="1" height="1800" fill="#47a1fa"/>
<rect x="1079" y="-1800" width="1" height="1800" fill="#3497fa"/>
<rect x="1080" y="-1800" width="1" height="1800" fill="#3195fa"/>
<rect x="1081" y="-1800" width="13" height="1800" fill="#3296fa"/>
<rect x="1094" y="-1800" width="1" height="1800" fill="#3397fa"/>
<rect x="1095" y="-1800" width="1" height="1800" fill="#3195f9"/>
<rect x="1096" y="-1800" width="1" height="1800" fill="#1d85ed"/>
<rect x="1097" y="-1800" width="1" height="1800" fill="#0673df"/>
<rect x="1098" y="-1800" width="1" height="1800" fill="#006cdb"/>
<rect x="1099" y="-1800" width="33" height="1800" fill="#006edc"/>
<rect x="1132" y="-1800" width="1" height="1800" fill="#006cdb"/>
<rect x="1133" y="-1800" width="1" height="1800" fill="#0773e0"/>
<rect x="1134" y="-1800" width="1" height="1800" fill="#1e86ee"/>
<rect x="1135" y="-1800" width="1" height="1800" fill="#3296fa"/>
<rect x="1136" y="-1800" width="1" height="1800" fill="#3396fa"/>
<rect x="1137" y="-1800" width="14" height="1800" fill="#3296fa"/>
<rect x="1151" y="-1800" width="1" height="1800" fill="#3396fa"/>
<rect x="1152" y="-1800" width="1" height="1800" fill="#3397fa"/>
<rect x="1153" y="-1800" width="1" height="1800" fill="#157ee9"/>
<rect x="1154" y="-1800" width="1" height="1800" fill="#0270dd"/>
<rect x="1155" y="-1800" width="1" height="1800" fill="#006ddb"/>
<rect x="1156" y="-1800" width="14" height="1800" fill="#006edc"/>
<rect x="1170" y="-1800" width="1" height="1800" fill="#006ddb"/>
<rect x="1171" y="-1800" width="1" height="1800" fill="#0471df"/>
<rect x="1172" y="-1800" width="1" height="1800" fill="#1e86ee"/>
<rect x="1173" y="-1800" width="1" height="1800" fill="#3699fc"/>
<rect x="1174" y="-1800" width="35" height="1800" fill="#3296fa"/>
<rect x="1209" y="-1800" width="1" height="1800" fill="#2b93fa"/>
<rect x="1210" y="-1800" width="1" height="1800" fill="#7cbbfa"/>
<rect x="1211" y="-1800" width="1" height="1800" fill="#9fccfa"/>
<rect x="1212" y="-1800" width="15" height="1800" fill="#96c8fa"/>
<rect x="1227" y="-1800" width="1" height="1800" fill="#94c7fa"/>
<rect x="1228" y="-1800" width="1" height="1800" fill="#9fccfa"/>
<rect x="1229" y="-1800" width="1" height="1800" fill="#b3d6fa"/>
<rect x="1230" y="-1800" width="1" height="1800" fill="#c0ddfa"/>
<rect x="1231" y="-1800" width="15" height="1800" fill="#bedcfa"/>
<rect x="1246" y="-1800" width="1" height="1800" fill="#c3defa"/>
<rect x="1247" y="-1800" width="1" height="1800" fill="#b2d6fa"/>
<rect x="1248" y="-1800" width="1" height="1800" fill="#6eb4fa"/>
<rect x="1249" y="-1800" width="1" height="1800" fill="#6cb3fa"/>
<rect x="1250" y="-1800" width="16" height="1800" fill="#6eb4fa"/>
<rect x="1266" y="-1800" width="1" height="1800" fill="#74b7fa"/>
<rect x="1267" y="-1800" width="1" height="1800" fill="#47a1fa"/>
<rect x="1268" y="-1800" width="1" height="1800" fill="#2c93fa"/>
<rect x="1269" y="-1800" width="15" height="1800" fill="#3296fa"/>
<rect x="1284" y="-1800" width="1" height="1800" fill="#2d93fa"/>
<rect x="1285" y="-1800" width="1" height="1800" fill="#45a0fa"/>
<rect x="1286" y="-1800" width="1" height="1800" fill="#68b1fa"/>
<rect x="1287" y="-1800" width="1" height="1800" fill="#6fb4fa"/>
<rect x="1288" y="-1800" width="15" height="1800" fill="#6eb4fa"/>
<rect x="1303" y="-1800" width="1" height="1800" fill="#6cb3fa"/>
<rect x="1304" y="-1800" width="1" height="1800" fill="#71b5fa"/>
<rect x="1305" y="-1800" width="1" height="1800" fill="#93c7fa"/>
<rect x="1306" y="-1800" width="1" height="1800" fill="#98c9fa"/>
<rect x="1307" y="-1800" width="34" height="1800" fill="#96c8fa"/>
<rect x="1341" y="-1800" width="1" height="1800" fill="#92c6fa"/>
<rect x="1342" y="-1800" width="1" height="1800" fill="#a4cffa"/>
<rect x="1343" y="-1800" width="1" height="1800" fill="#c2defa"/>
<rect x="1344" y="-1800" width="15" height="1800" fill="#bedcfa"/>
<rect x="1359" y="-1800" width="1" height="1800" fill="#bfdcfa"/>
<rect x="1360" y="-1800" width="1" height="1800" fill="#bddcfa"/>
<rect x="1361" y="-1800" width="1" height="1800" fill="#b4d7fa"/>
<rect x="1362" y="-1800" width="1" height="1800" fill="#9acafa"/>
<rect x="1363" y="-1800" width="1" height="1800" fill="#94c7fa"/>
<rect x="1364" y="-1800" width="72" height="1800" fill="#96c8fa"/>
<rect x="1436" y="-1800" width="1" height="1800" fill="#9acafa"/>
<rect x="1437" y="-1800" width="1" height="1800" fill="#b2d6fa"/>
<rect x="1438" y="-1800" width="1" height="1800" fill="#c1defa"/>
<rect x="1439" y="-1800" width="15" height="1800" fill="#bedcfa"/>
<rect x="1454" y="-1800" width="1" height="1800" fill="#c1defa"/>
<rect x="1455" y="-1800" width="1" height="1800" fill="#b4d7fa"/>
<rect x="1456" y="-1800" width="1" height="1800" fill="#9bcbfa"/>
<rect x="1457" y="-1800" width="35" height="1800" fill="#96c8fa"/>
<rect x="1492" y="-1800" width="1" height="1800" fill="#98c9fa"/>
<rect x="1493" y="-1800" width="1" height="1800" fill="#8bc2fa"/>
<rect x="1494" y="-1800" width="1" height="1800" fill="#76b8fa"/>
<rect x="1495" y="-1800" width="1" height="1800" fill="#6cb3fa"/>
<rect x="1496" y="-1800" width="15" height="1800" fill="#6eb4fa"/>
<rect x="1511" y="-1800" width="1" height="1800" fill="#69b1fa"/>
<rect x="1512" y="-1800" width="1" height="1800" fill="#7ebcfa"/>
<rect x="1513" y="-1800" width="1" height="1800" fill="#b0d5fa"/>
<rect x="1514" y="-1800" width="1" height="1800" fill="#bddcfa"/>
<rect x="1515" y="-1800" width="1" height="1800" fill="#bfdcfa"/>
<rect x="1516" y="-1800" width="14" height="1800" fill="#bedcfa"/>
<rect x="1530" y="-1800" width="1" height="1800" fill="#bfdcfa"/>
<rect x="1531" y="-1800" width="1" height="1800" fill="#c6e0fa"/>
<rect x="1532" y="-1800" width="1" height="1800" fill="#e0edfa"/>
<rect x="1533" y="-1800" width="1" height="1800" fill="#e8f1fa"/>
<rect x="1534" y="-1800" width="15" height="1800" fill="#e6f0fa"/>
<rect x="1549" y="-1800" width="1" height="1800" fill="#e9f2fa"/>
<rect x="1550" y="-1800" width="1" height="1800" fill="#d5e8fa"/>
<rect x="1551" y="-1800" width="1" height="1800" fill="#c1ddfa"/>
<rect x="1552" y="-1800" width="1" height="1800" fill="#bddbfa"/>
<rect x="1553" y="-1800" width="15" height="1800" fill="#bedcfa"/>
<rect x="1568" y="-1800" width="1" height="1800" fill="#c1ddfa"/>
<rect x="1569" y="-1800" width="1" height="1800" fill="#b6d8fa"/>
<rect x="1570" y="-1800" width="1" height="1800" fill="#95c7fa"/>
<rect x="1571" y="-1800" width="15" height="1800" fill="#96c8fa"/>
<rect x="1586" y="-1800" width="1" height="1800" fill="#95c8fa"/>
<rect x="1587" y="-1800" width="1" height="1800" fill="#97c8fa"/>
<rect x="1588" y="-1800" width="1" height="1800" fill="#b0d5fa"/>
<rect x="1589" y="-1800" width="1" height="1800" fill="#bddbfa"/>
<rect x="1590" y="-1800" width="1" height="1800" fill="#bfdcfa"/>
<rect x="1591" y="-1800" width="53" height="1800" fill="#bedcfa"/>
<rect x="1644" y="-1800" width="1" height="1800" fill="#bddbfa"/>
<rect x="1645" y="-1800" width="1" height="1800" fill="#deecfa"/>
<rect x="1646" y="-1800" width="1" height="1800" fill="#e9f1fa"/>
<rect x="1647" y="-1800" width="54" height="1800" fill="#e6f0fa"/>
<rect x="1701" y="-1800" width="1" height="1800" fill="#eaecf3"/>
<rect x="1702" y="-1800" width="1" height="1800" fill="#fad8da"/>
<rect x="1703" y="-1800" width="1" height="1800" fill="#ffd0cf"/>
<rect x="1704" y="-1800" width="34" height="1800" fill="#ffd2d2"/>
<rect x="1738" y="-1800" width="1" height="1800" fill="#ffd1d0"/>
<rect x="1739" y="-1800" width="1" height="1800" fill="#fdd5d6"/>
<rect x="1740" y="-1800" width="1" height="1800" fill="#ede8ef"/>
<rect x="1741" y="-1800" width="1" height="1800" fill="#e7eff9"/>
<rect x="1742" y="-1800" width="1" height="1800" fill="#e6f0fb"/>
<rect x="1743" y="-1800" width="33" height="1800" fill="#e6f0fa"/>
<rect x="1776" y="-1800" width="1" height="1800" fill="#e3f5ff"/>
<rect x="1777" y="-1800" width="1" height="1800" fill="#f1dbe1"/>
<rect x="1778" y="-1800" width="1" height="1800" fill="#ffb9b8"/>
<rect x="1779" y="-1800" width="15" height="1800" fill="#ffbebe"/>
<rect x="1794" y="-1800" width="1" height="1800" fill="#ffbdbd"/>
<rect x="1795" y="-1800" width="1" height="1800" fill="#ffc0c0"/>
<rect x="1796" y="-1800" width="1" height="1800" fill="#ffc9c9"/>
<rect x="1797" y="-1800" width="1" height="1800" fill="#ffd1d1"/>
<rect x="1798" y="-1800" width="16" height="1800" fill="#ffd2d2"/>
<rect x="1814" y="-1800" width="1" height="1800" fill="#ffd0d0"/>
<rect x="1815" y="-1800" width="1" height="1800" fill="#f2e2e7"/>
<rect x="1816" y="-1800" width="1" height="1800" fill="#e7eff8"/>
<rect x="1817" y="-1800" width="1" height="1800" fill="#e5f1fb"/>
<rect x="1818" y="-1800" width="71" height="1800" fill="#e6f0fa"/>
<rect x="1889" y="-1800" width="1" height="1800" fill="#e8f1fa"/>
<rect x="1890" y="-1800" width="1" height="1800" fill="#dfedfa"/>
<rect x="1891" y="-1800" width="1" height="1800" fill="#cbe2fa"/>
<rect x="1892" y="-1800" width="1" height="1800" fill="#bddbfa"/>
<rect x="1893" y="-1800" width="15" height="1800" fill="#bedcfa"/>
<rect x="1908" y="-1800" width="1" height="1800" fill="#bddbfa"/>
<rect x="1909" y="-1800" width="1" height="1800" fill="#c0ddfa"/>
<rect x="1910" y="-1800" width="1" height="1800" fill="#d9eafa"/>
<rect x="1911" y="-1800" width="1" height="1800" fill="#e5effa"/>
<rect x="1912" y="-1800" width="1" height="1800" fill="#e7f0fa"/>
<rect x="1913" y="-1800" width="14" height="1800" fill="#e6f0fa"/>
<rect x="1927" y="-1800" width="1" height="1800" fill="#e6f0fb"/>
<rect x="1928" y="-1800" width="1" height="1800" fill="#e8edf6"/>
<rect x="1929" y="-1800" width="1" height="1800" fill="#f7dcdf"/>
<rect x="1930" y="-1800" width="1" height="1800" fill="#ffcfcf"/>
<rect x="1931" y="-1800" width="15" height="1800" fill="#ffd2d2"/>
<rect x="1946" y="-1800" width="1" height="1800" fill="#ffd3d3"/>
<rect x="1947" y="-1800" width="1" height="1800" fill="#ffcfcf"/>
<rect x="1948" y="-1800" width="1" height="1800" fill="#ffc6c6"/>
<rect x="1949" y="-1800" width="15" height="1800" fill="#ffbebe"/>
<rect x="1964" y="-1800" width="1" height="1800" fill="#ffbebd"/>
<rect x="1965" y="-1800" width="1" height="1800" fill="#febfbf"/>
<rect x="1966" y="-1800" width="1" height="1800" fill="#efc6cd"/>
<rect x="1967" y="-1800" width="1" height="1800" fill="#c5d9f3"/>
<rect x="1968" y="-1800" width="1" height="1800" fill="#bbddfd"/>
<rect x="1969" y="-1800" width="34" height="1800" fill="#bedcfa"/>
<rect x="2003" y="-1800" width="1" height="1800" fill="#c1defa"/>
<rect x="2004" y="-1800" width="1" height="1800" fill="#b4d7fa"/>
<rect x="2005" y="-1800" width="1" height="1800" fill="#94c7fa"/>
<rect x="2006" y="-1800" width="15" height="1800" fill="#96c8fa"/>
<rect x="2021" y="-1800" width="1" height="1800" fill="#94c7fa"/>
<rect x="2022" y="-1800" width="1" height="1800" fill="#99c9fa"/>
<rect x="2023" y="-1800" width="1" height="1800" fill="#b9dafa"/>
<rect x="2024" y="-1800" width="1" height="1800" fill="#deecfa"/>
<rect x="2025" y="-1800" width="1" height="1800" fill="#e9f2fa"/>
<rect x="2026" y="-1800" width="15" height="1800" fill="#e6f0fa"/>
<rect x="2041" y="-1800" width="1" height="1800" fill="#e4f2fd"/>
<rect x="2042" y="-1800" width="1" height="1800" fill="#f0e4ea"/>
<rect x="2043" y="-1800" width="1" height="1800" fill="#fdd5d5"/>
<rect x="2044" y="-1800" width="1" height="1800" fill="#ffd1d1"/>
<rect x="2045" y="-1800" width="33" height="1800" fill="#ffd2d2"/>
<rect x="2078" y="-1800" width="1" height="1800" fill="#ffd2d1"/>
<rect x="2079" y="-1800" width="1" height="1800" fill="#ffd2d2"/>
<rect x="2080" y="-1800" width="1" height="1800" fill="#efe5eb"/>
<rect x="2081" y="-1800" width="1" height="1800" fill="#e7eff8"/>
<rect x="2082" y="-1800" width="1" height="1800" fill="#e5f1fb"/>
<rect x="2083" y="-1800" width="15" height="1800" fill="#e6f0fa"/>
<rect x="2098" y="-1800" width="1" height="1800" fill="#e3f3fe"/>
<rect x="2099" y="-1800" width="1" height="1800" fill="#f2e2e7"/>
<rect x="2100" y="-1800" width="1" height="1800" fill="#ffcfce"/>
<rect x="2101" y="-1800" width="53" height="1800" fill="#ffd2d2"/>
<rect x="2154" y="-1800" width="1" height="1800" fill="#ffd3cf"/>
<rect x="2155" y="-1800" width="1" height="1800" fill="#d4cee2"/>
<rect x="2156" y="-1800" width="1" height="1800" fill="#9ec9f7"/>
<rect x="2157" y="-1800" width="1" height="1800" fill="#93c8fb"/>
<rect x="2158" y="-1800" width="15" height="1800" fill="#96c8fa"/>
<rect x="2173" y="-1800" width="1" height="1800" fill="#93c7fa"/>
<rect x="2174" y="-1800" width="1" height="1800" fill="#9dccfa"/>
<rect x="2175" y="-1800" width="2" height="1800" fill="#bfdcfa"/>
<rect x="2177" y="-1800" width="16" height="1800" fill="#bedcfa"/>
<rect x="2193" y="-1800" width="1" height="1800" fill="#c4dffa"/>
<rect x="2194" y="-1800" width="1" height="1800" fill="#ddecfa"/>
<rect x="2195" y="-1800" width="1" height="1800" fill="#e9f1fa"/>
<rect x="2196" y="-1800" width="34" height="1800" fill="#e6f0fa"/>
<rect x="2230" y="-1800" width="1" height="1800" fill="#e8f1fa"/>
<rect x="2231" y="-1800" width="1" height="1800" fill="#e2eefa"/>
<rect x="2232" y="-1800" width="1" height="1800" fill="#bfddfa"/>
<rect x="2233" y="-1800" width="1" height="1800" fill="#bddbfa"/>
<rect x="2234" y="-1800" width="15" height="1800" fill="#bedcfa"/>
<rect x="2249" y="-1800" width="1" height="1800" fill="#bddcfb"/>
<rect x="2250" y="-1800" width="1" height="1800" fill="#d5d9ec"/>
<rect x="2251" y="-1800" width="1" height="1800" fill="#f5d4d9"/>
<rect x="2252" y="-1800" width="1" height="1800" fill="#ffd1d0"/>
<rect x="2253" y="-1800" width="15" height="1800" fill="#ffd2d2"/>
<rect x="2268" y="-1800" width="1" height="1800" fill="#ffcfce"/>
<rect x="2269" y="-1800" width="1" height="1800" fill="#f5dee2"/>
<rect x="2270" y="-1800" width="1" height="1800" fill="#e3f3fe"/>
<rect x="2271" y="-1800" width="15" height="1800" fill="#e6f0fa"/>
<rect x="2286" y="-1800" width="1" height="1800" fill="#e7f0fa"/>
<rect x="2287" y="-1800" width="1" height="1800" fill="#e5effa"/>
<rect x="2288" y="-1800" width="1" height="1800" fill="#dbeafa"/>
<rect x="2289" y="-1800" width="1" height="1800" fill="#c1defa"/>
<rect x="2290" y="-1800" width="1" height="1800" fill="#bcdbfa"/>
<rect x="2291" y="-1800" width="15" height="1800" fill="#bedcfa"/>
<rect x="2306" y="-1800" width="1" height="1800" fill="#bcdbfa"/>
<rect x="2307" y="-1800" width="1" height="1800" fill="#d2e6fa"/>
<rect x="2308" y="-1800" width="1" height="1800" fill="#e4effa"/>
<rect x="2309" y="-1800" width="1" height="1800" fill="#e7f1fa"/>
<rect x="2310" y="-1800" width="14" height="1800" fill="#e6f0fa"/>
<rect x="2324" y="-1800" width="1" height="1800" fill="#e5f1fb"/>
<rect x="2325" y="-1800" width="1" height="1800" fill="#e7eff8"/>
<rect x="2326" y="-1800" width="1" height="1800" fill="#f2e1e6"/>
<rect x="2327" y="-1800" width="1" height="1800" fill="#ffd0d0"/>
<rect x="2328" y="-1800" width="15" height="1800" fill="#ffd2d2"/>
<rect x="2343" y="-1800" width="1" height="1800" fill="#ffd2d1"/>
<rect x="2344" y="-1800" width="1" height="1800" fill="#f9d1d4"/>
<rect x="2345" y="-1800" width="1" height="1800" fill="#cecde5"/>
<rect x="2346" y="-1800" width="1" height="1800" fill="#9fc9f7"/>
<rect x="2347" y="-1800" width="1" height="1800" fill="#92c8fb"/>
<rect x="2348" y="-1800" width="15" height="1800" fill="#96c8fa"/>
<rect x="2363" y="-1800" width="1" height="1800" fill="#9bcbfa"/>
<rect x="2364" y="-1800" width="1" height="1800" fill="#b3d7fa"/>
<rect x="2365" y="-1800" width="1" height="1800" fill="#c1defa"/>
<rect x="2366" y="-1800" width="15" height="1800" fill="#bedcfa"/>
<rect x="2381" y="-1800" width="1" height="1800" fill="#c1defa"/>
<rect x="2382" y="-1800" width="1" height="1800" fill="#b2d6fa"/>
<rect x="2383" y="-1800" width="1" height="1800" fill="#9bcafa"/>
<rect x="2384" y="-1800" width="16" height="1800" fill="#96c8fa"/>
<rect x="2400" y="-1800" width="1" height="1800" fill="#93c8fb"/>
<rect x="2401" y="-1800" width="1" height="1800" fill="#9bc8f8"/>
<rect x="2402" y="-1800" width="1" height="1800" fill="#f5d1d6"/>
<rect x="2403" y="-1800" width="1" height="1800" fill="#ffd2d0"/>
<rect x="2404" y="-1800" width="15" height="1800" fill="#ffd2d2"/>
<rect x="2419" y="-1800" width="1" height="1800" fill="#ffd1d1"/>
<rect x="2420" y="-1800" width="1" height="1800" fill="#f8dbde"/>
<rect x="2421" y="-1800" width="1" height="1800" fill="#ebeaf2"/>
<rect x="2422" y="-1800" width="1" height="1800" fill="#e5f2fc"/>
<rect x="2423" y="-1800" width="15" height="1800" fill="#e6f0fa"/>
<rect x="2438" y="-1800" width="1" height="1800" fill="#e4f2fd"/>
<rect x="2439" y="-1800" width="1" height="1800" fill="#ece9f1"/>
<rect x="2440" y="-1800" width="1" height="1800" fill="#fbd7d8"/>
<rect x="2441" y="-1800" width="36" height="1800" fill="#ffd2d2"/>
<rect x="2477" y="-1800" width="1" height="1800" fill="#ffd0d0"/>
<rect x="2478" y="-1800" width="1" height="1800" fill="#ffc6c6"/>
<rect x="2479" y="-1800" width="1" height="1800" fill="#ffbcbc"/>
<rect x="2480" y="-1800" width="14" height="1800" fill="#ffbebe"/>
<rect x="2494" y="-1800" width="1" height="1800" fill="#ffbdbd"/>
<rect x="2495" y="-1800" width="1" height="1800" fill="#ffbfbf"/>
<rect x="2496" y="-1800" width="1" height="1800" fill="#ffc7c7"/>
<rect x="2497" y="-1800" width="1" height="1800" fill="#ffd3d3"/>
<rect x="2498" y="-1800" width="16" height="1800" fill="#ffd2d2"/>
<rect x="2514" y="-1800" width="1" height="1800" fill="#ffd1d1"/>
<rect x="2515" y="-1800" width="1" height="1800" fill="#ffcaca"/>
<rect x="2516" y="-1800" width="1" height="1800" fill="#ffc0c0"/>
<rect x="2517" y="-1800" width="1" height="1800" fill="#ffbdbd"/>
<rect x="2518" y="-1800" width="15" height="1800" fill="#ffbebe"/>
<rect x="2533" y="-1800" width="1" height="1800" fill="#ffb9b7"/>
<rect x="2534" y="-1800" width="1" height="1800" fill="#f2d9de"/>
<rect x="2535" y="-1800" width="1" height="1800" fill="#e3f6ff"/>
<rect x="2536" y="-1800" width="34" height="1800" fill="#e6f0fa"/>
<rect x="2570" y="-1800" width="1" height="1800" fill="#e6f0fb"/>
<rect x="2571" y="-1800" width="1" height="1800" fill="#e6f0fa"/>
<rect x="2572" y="-1800" width="1" height="1800" fill="#f5dee2"/>
<rect x="2573" y="-1800" width="1" height="1800" fill="#fed3d4"/>
<rect x="2574" y="-1800" width="1" height="1800" fill="#ffd1d1"/>
<rect x="2575" y="-1800" width="15" height="1800" fill="#ffd2d2"/>
<rect x="2590" y="-1800" width="1" height="1800" fill="#ffd0d0"/>
<rect x="2591" y="-1800" width="1" height="1800" fill="#ffc6c6"/>
<rect x="2592" y="-1800" width="1" height="1800" fill="#ffbcbc"/>
<rect x="2593" y="-1800" width="53" height="1800" fill="#ffbebe"/>
<rect x="2646" y="-1800" width="1" height="1800" fill="#ffc0c0"/>
<rect x="2647" y="-1800" width="1" height="1800" fill="#ffb5b5"/>
<rect x="2648" y="-1800" width="1" height="1800" fill="#ffa1a1"/>
<rect x="2649" y="-1800" width="1" height="1800" fill="#ff9494"/>
<rect x="2650" y="-1800" width="35" height="1800" fill="#ff9696"/>
<rect x="2685" y="-1800" width="1" height="1800" fill="#ffa5a5"/>
<rect x="2686" y="-1800" width="1" height="1800" fill="#ffb9b9"/>
<rect x="2687" y="-1800" width="1" height="1800" fill="#ffc0c0"/>
<rect x="2688" y="-1800" width="33" height="1800" fill="#ffbebe"/>
<rect x="2721" y="-1800" width="1" height="1800" fill="#ffc0c0"/>
<rect x="2722" y="-1800" width="1" height="1800" fill="#ffbaba"/>
<rect x="2723" y="-1800" width="1" height="1800" fill="#ffa7a7"/>
<rect x="2724" y="-1800" width="1" height="1800" fill="#ff9797"/>
<rect x="2725" y="-1800" width="1" height="1800" fill="#ff9595"/>
<rect x="2726" y="-1800" width="15" height="1800" fill="#ff9696"/>
<rect x="2741" y="-1800" width="1" height="1800" fill="#ff9898"/>
<rect x="2742" y="-1800" width="1" height="1800" fill="#ff7b7b"/>
<rect x="2743" y="-1800" width="1" height="1800" fill="#ff6767"/>
<rect x="2744" y="-1800" width="1" height="1800" fill="#ff6363"/>
<rect x="2745" y="-1800" width="14" height="1800" fill="#ff6464"/>
<rect x="2759" y="-1800" width="1" height="1800" fill="#ff6262"/>
<rect x="2760" y="-1800" width="1" height="1800" fill="#ff6a6a"/>
<rect x="2761" y="-1800" width="1" height="1800" fill="#ff9696"/>
<rect x="2762" y="-1800" width="1" height="1800" fill="#ffc4c4"/>
<rect x="2763" y="-1800" width="15" height="1800" fill="#ffbebe"/>
<rect x="2778" y="-1800" width="1" height="1800" fill="#ffc1c1"/>
<rect x="2779" y="-1800" width="1" height="1800" fill="#ffb7b7"/>
<rect x="2780" y="-1800" width="1" height="1800" fill="#ff8f8f"/>
<rect x="2781" y="-1800" width="1" height="1800" fill="#ff6969"/>
<rect x="2782" y="-1800" width="1" height="1800" fill="#ff6262"/>
<rect x="2783" y="-1800" width="13" height="1800" fill="#ff6464"/>
<rect x="2796" y="-1800" width="1" height="1800" fill="#ff6565"/>
<rect x="2797" y="-1800" width="1" height="1800" fill="#ff6464"/>
<rect x="2798" y="-1800" width="1" height="1800" fill="#f75555"/>
<rect x="2799" y="-1800" width="1" height="1800" fill="#d41616"/>
<rect x="2800" y="-1800" width="1" height="1800" fill="#c40000"/>
<rect x="2801" y="-1800" width="15" height="1800" fill="#c80000"/>
<rect x="2816" y="-1800" width="1" height="1800" fill="#c50000"/>
<rect x="2817" y="-1800" width="1" height="1800" fill="#d31313"/>
<rect x="2818" y="-1800" width="1" height="1800" fill="#ef4646"/>
<rect x="2819" y="-1800" width="1" height="1800" fill="#ff6868"/>
<rect x="2820" y="-1800" width="15" height="1800" fill="#ff6464"/>
<rect x="2835" y="-1800" width="1" height="1800" fill="#ff6262"/>
<rect x="2836" y="-1800" width="1" height="1800" fill="#ff6868"/>
<rect x="2837" y="-1800" width="1" height="1800" fill="#ff8888"/>
<rect x="2838" y="-1800" width="1" height="1800" fill="#ff9595"/>
<rect x="2839" y="-1800" width="1" height="1800" fill="#ff9797"/>
<rect x="2840" y="-1800" width="15" height="1800" fill="#ff9696"/>
<rect x="2855" y="-1800" width="1" height="1800" fill="#ffa1a1"/>
<rect x="2856" y="-1800" width="1" height="1800" fill="#ff5555"/>
<rect x="2857" y="-1800" width="1" height="1800" fill="#ff1c1c"/>
<rect x="2858" y="-1800" width="34" height="1800" fill="#ff2828"/>
<rect x="2892" y="-1800" width="1" height="1800" fill="#ff2929"/>
<rect x="2893" y="-1800" width="1" height="1800" fill="#fd2727"/>
<rect x="2894" y="-1800" width="1" height="1800" fill="#cf0505"/>
<rect x="2895" y="-1800" width="1" height="1800" fill="#c50000"/>
<rect x="2896" y="-1800" width="15" height="1800" fill="#c80000"/>
<rect x="2911" y="-1800" width="1" height="1800" fill="#c70000"/>
<rect x="2912" y="-1800" width="1" height="1800" fill="#cd0404"/>
<rect x="2913" y="-1800" width="1" height="1800" fill="#ec1a1a"/>
<rect x="2914" y="-1800" width="1" height="1800" fill="#ff2b2b"/>
<rect x="2915" y="-1800" width="15" height="1800" fill="#ff2828"/>
<rect x="2930" y="-1800" width="1" height="1800" fill="#ff2b2b"/>
<rect x="2931" y="-1800" width="1" height="1800" fill="#f42020"/>
<rect x="2932" y="-1800" width="1" height="1800" fill="#d10606"/>
<rect x="2933" y="-1800" width="35" height="1800" fill="#c80000"/>
<rect x="2968" y="-1800" width="1" height="1800" fill="#c50000"/>
<rect x="2969" y="-1800" width="1" height="1800" fill="#d60a0a"/>
<rect x="2970" y="-1800" width="1" height="1800" fill="#f21e1e"/>
<rect x="2971" y="-1800" width="1" height="1800" fill="#ff2a2a"/>
<rect x="2972" y="-1800" width="14" height="1800" fill="#ff2828"/>
<rect x="2986" y="-1800" width="1" height="1800" fill="#ff2626"/>
<rect x="2987" y="-1800" width="1" height="1800" fill="#ff2b2b"/>
<rect x="2988" y="-1800" width="1" height="1800" fill="#ff4242"/>
<rect x="2989" y="-1800" width="1" height="1800" fill="#ff6666"/>
<rect x="2990" y="-1800" width="15" height="1800" fill="#ff6464"/>
<rect x="3005" y="-1800" width="1" height="1800" fill="#ff6666"/>
<rect x="3006" y="-1800" width="1" height="1800" fill="#fe6161"/>
<rect x="3007" y="-1800" width="1" height="1800" fill="#db2323"/>
<rect x="3008" y="-1800" width="1" height="1800" fill="#ca0303"/>
<rect x="3009" y="-1800" width="1" height="1800" fill="#c70000"/>
<rect x="3010" y="-1800" width="33" height="1800" fill="#c80000"/>
<rect x="3043" y="-1800" width="1" height="1800" fill="#c50000"/>
<rect x="3044" y="-1800" width="1" height="1800" fill="#cf0505"/>
<rect x="3045" y="-1800" width="1" height="1800" fill="#ea1818"/>
<rect x="3046" y="-1800" width="35" height="1800" fill="#ff2828"/>
<rect x="3081" y="-1800" width="1" height="1800" fill="#ff2a2a"/>
<rect x="3082" y="-1800" width="1" height="1800" fill="#f11e1e"/>
<rect x="3083" y="-1800" width="1" height="1800" fill="#d50909"/>
<rect x="3084" y="-1800" width="1" height="1800" fill="#c50000"/>
<rect x="3085" y="-1800" width="35" height="1800" fill="#c80000"/>
<rect x="3120" y="-1800" width="1" height="1800" fill="#d10000"/>
<rect x="3121" y="-1800" width="1" height="1800" fill="#690000"/>
<rect x="3122" y="-1800" width="1" height="1800" fill="#3b0000"/>
<rect x="3123" y="-1800" width="34" height="1800" fill="#460000"/>
<rect x="3157" y="-1800" width="1" height="1800" fill="#430000"/>
<rect x="3158" y="-1800" width="1" height="1800" fill="#4d0000"/>
<rect x="3159" y="-1800" width="1" height="1800" fill="#770000"/>
<rect x="3160" y="-1800" width="1" height="1800" fill="#790000"/>
<rect x="3161" y="-1800" width="14" height="1800" fill="#780000"/>
<rect x="3175" y="-1800" width="2" height="1800" fill="#770000"/>
<rect x="3177" y="-1800" width="1" height="1800" fill="#a80000"/>
<rect x="3178" y="-1800" width="1" height="1800" fill="#c50000"/>
<rect x="3179" y="-1800" width="1" height="1800" fill="#ca0000"/>
<rect x="3180" y="-1800" width="19" height="1800" fill="#c80000"/>
</svg>